<?xml version="1.0" standalone="no"?>
<!DOCTYPE svg PUBLIC "-//W3C//DTD SVG 20010904//EN"
 "http://www.w3.org/TR/2001/REC-SVG-20010904/DTD/svg10.dtd">
<svg version="1.0" xmlns="http://www.w3.org/2000/svg"
 width="900.000000pt" height="660.000000pt" viewBox="0 0 900.000000 660.000000"
 preserveAspectRatio="xMidYMid meet">

<g transform="translate(0.000000,660.000000) scale(0.100000,-0.100000)"
fill="#000000" stroke="none">
<path d="M4475 6548 c-16 -11 -93 -56 -170 -100 -77 -44 -205 -118 -283 -164
-79 -46 -146 -84 -150 -84 -3 0 -13 -6 -21 -14 -9 -7 -47 -30 -86 -51 -79 -43
-218 -122 -375 -215 -34 -21 -119 -69 -175 -100 -33 -18 -78 -45 -100 -59 -22
-14 -53 -32 -70 -41 -16 -9 -75 -42 -130 -74 -55 -33 -120 -70 -145 -84 -44
-24 -78 -44 -390 -225 -85 -49 -175 -101 -200 -115 -61 -34 -337 -194 -380
-220 -19 -12 -56 -33 -83 -47 l-47 -25 0 -1633 0 -1632 89 -53 c48 -28 92 -52
96 -52 5 0 16 -6 24 -14 9 -7 36 -25 61 -38 25 -14 68 -38 95 -53 28 -15 57
-33 65 -39 18 -13 20 -15 198 -112 26 -15 58 -34 72 -44 14 -9 50 -31 80 -47
30 -17 159 -90 285 -163 127 -73 245 -141 262 -151 55 -32 101 -58 141 -80 20
-12 42 -25 47 -29 12 -9 69 -42 140 -80 28 -15 84 -47 125 -72 115 -69 222
-132 250 -145 14 -7 32 -17 40 -23 8 -5 56 -33 105 -61 50 -29 160 -93 245
-142 85 -50 171 -99 190 -109 19 -10 53 -30 75 -44 22 -13 59 -34 82 -45 23
-11 45 -24 48 -29 10 -17 29 -11 91 26 32 20 75 45 94 56 19 11 37 23 40 27 3
3 30 18 60 33 55 28 83 43 150 84 19 12 55 33 80 46 71 40 110 62 195 114 44
27 94 56 110 64 17 8 41 22 55 31 14 9 57 33 95 54 39 20 86 47 105 59 73 44
96 57 113 62 9 4 17 10 17 15 0 5 5 9 11 9 6 0 23 8 37 18 15 11 56 34 92 53
36 18 91 50 122 71 31 21 60 38 63 38 4 0 19 8 33 19 15 10 61 37 102 58 108
58 151 83 182 104 14 11 29 19 32 19 6 0 160 89 257 149 36 23 85 51 110 64
24 13 62 34 84 46 22 13 60 35 85 49 25 14 95 54 155 90 61 35 142 83 180 105
39 22 78 45 88 51 17 10 18 94 20 1643 l2 1631 -31 21 c-16 12 -34 21 -38 21
-4 0 -26 13 -49 28 -23 15 -53 33 -67 40 -14 7 -38 21 -55 32 -16 10 -41 25
-55 33 -14 7 -90 51 -170 97 -171 100 -180 105 -257 147 -32 18 -114 66 -183
107 -69 42 -150 89 -180 105 -30 17 -77 44 -105 59 -27 16 -72 42 -100 57 -27
15 -54 31 -60 35 -9 8 -79 48 -185 108 -25 14 -124 71 -220 127 -96 56 -222
129 -280 162 -212 121 -697 401 -748 431 -29 18 -54 32 -55 31 -1 0 -15 -10
-32 -21z m119 -1448 c19 -22 38 -52 42 -67 4 -16 13 -53 21 -83 8 -30 19 -73
24 -95 5 -22 15 -65 23 -95 41 -157 57 -223 76 -305 11 -49 25 -101 29 -115 5
-14 38 -143 72 -287 35 -145 67 -263 71 -263 3 0 14 13 25 29 10 16 43 57 73
92 117 134 187 215 210 245 73 91 444 516 471 538 49 42 109 29 163 -34 38
-46 34 -86 -29 -272 -31 -90 -85 -251 -121 -358 -36 -107 -69 -204 -73 -215
-9 -21 -104 -305 -176 -525 -39 -119 -62 -184 -91 -255 -7 -19 -6 -19 12 -5
10 8 38 33 61 54 24 22 55 47 70 57 16 9 43 30 61 45 52 46 249 203 312 249
15 11 60 47 100 80 142 117 155 125 210 125 41 0 54 -5 79 -29 16 -16 35 -48
41 -72 11 -40 9 -47 -25 -123 -74 -162 -85 -187 -85 -192 0 -3 -18 -43 -40
-90 -22 -47 -40 -88 -40 -91 0 -3 -20 -47 -44 -97 -25 -50 -63 -136 -86 -191
-23 -55 -57 -133 -76 -173 -19 -40 -34 -75 -34 -78 0 -2 -14 -35 -31 -72 -17
-37 -35 -76 -40 -87 -4 -11 -26 -60 -48 -108 -23 -49 -41 -90 -41 -92 0 -2
-22 -52 -50 -110 -27 -58 -50 -110 -50 -114 0 -5 -13 -36 -30 -69 -16 -34 -30
-64 -30 -67 0 -3 -18 -44 -40 -91 -22 -47 -40 -90 -40 -96 0 -18 -34 -72 -69
-111 -31 -33 -40 -37 -84 -37 -45 0 -54 4 -93 44 -31 31 -44 52 -44 71 0 16
-4 42 -10 59 -5 17 -16 59 -25 94 -19 78 -40 164 -61 245 -9 34 -20 80 -24
102 -7 35 -18 81 -50 205 -5 19 -17 62 -26 95 -10 33 -21 78 -25 100 -4 22
-13 58 -19 80 -6 22 -15 58 -20 80 -5 22 -13 56 -19 75 -5 19 -21 82 -35 140
-14 58 -31 123 -37 145 -6 22 -15 58 -21 80 -5 22 -13 54 -18 70 -5 17 -12 47
-16 68 -3 20 -9 37 -13 37 -3 -1 -30 -31 -58 -68 -29 -38 -85 -103 -124 -145
-63 -69 -74 -77 -107 -77 -54 0 -89 26 -177 131 -44 52 -85 100 -93 108 -7 8
-20 24 -29 37 -18 28 -33 31 -33 7 0 -10 -18 -90 -41 -178 -40 -159 -48 -189
-67 -275 -6 -25 -43 -171 -82 -325 -39 -154 -75 -298 -80 -320 -15 -74 -102
-419 -121 -482 -10 -34 -19 -70 -19 -80 0 -29 -37 -82 -72 -103 -73 -44 -140
-10 -190 98 -17 37 -64 144 -105 237 -41 94 -88 197 -103 230 -15 33 -60 134
-100 225 -74 169 -93 213 -137 310 -14 30 -50 111 -80 180 -68 155 -157 355
-195 436 -15 34 -28 64 -28 67 0 3 -22 53 -50 112 -65 139 -67 178 -10 235 33
33 47 40 78 40 45 0 32 9 322 -223 129 -103 259 -207 289 -230 71 -56 140
-112 174 -143 32 -28 44 -26 28 4 -6 11 -17 44 -25 74 -8 29 -56 172 -106 318
-50 146 -95 279 -100 295 -4 17 -15 50 -24 75 -30 84 -67 194 -123 365 -30 94
-64 192 -74 219 -11 27 -19 56 -19 65 0 9 -9 34 -20 56 -24 48 -25 76 -4 121
46 96 162 107 222 21 12 -18 40 -52 63 -77 22 -25 84 -97 137 -160 53 -63 99
-117 102 -120 3 -3 62 -70 130 -150 68 -80 142 -166 164 -191 23 -25 55 -63
73 -85 72 -90 71 -90 76 -74 3 8 17 69 32 135 15 66 34 140 43 165 8 25 18 65
23 90 4 25 25 115 48 200 22 85 42 164 45 175 3 11 19 79 36 150 16 72 39 160
50 196 11 36 20 75 20 88 0 32 35 96 66 120 19 15 41 21 74 21 43 0 51 -4 84
-40z m2656 -240 c0 -5 -5 -10 -11 -10 -5 0 -7 5 -4 10 3 6 8 10 11 10 2 0 4
-4 4 -10z m-1460 -844 c0 -2 -3 -11 -6 -20 -9 -23 -24 -20 -24 4 0 11 7 20 15
20 8 0 15 -2 15 -4z m-53 -128 c-3 -8 -6 -5 -6 6 -1 11 2 17 5 13 3 -3 4 -12
1 -19z m-31 -104 c-4 -9 -9 -15 -11 -12 -3 3 -3 13 1 22 4 9 9 15 11 12 3 -3
3 -13 -1 -22z m-26 -84 c0 -5 -4 -10 -10 -10 -5 0 -10 5 -10 10 0 6 5 10 10
10 6 0 10 -4 10 -10z m625 -40 c3 -5 1 -10 -4 -10 -6 0 -11 5 -11 10 0 6 2 10
4 10 3 0 8 -4 11 -10z m-161 -15 c-25 -19 -40 -19 -24 0 7 8 20 15 28 15 13 0
12 -3 -4 -15z m-107 -82 c-20 -20 -40 -33 -44 -29 -5 5 3 16 16 25 14 9 30 21
35 28 6 7 15 12 20 13 5 0 -7 -16 -27 -37z m363 -45 c0 -19 -2 -20 -10 -8 -13
19 -13 30 0 30 6 0 10 -10 10 -22z m-434 -13 c-25 -19 -41 -19 -24 0 7 8 20
14 28 14 11 0 10 -3 -4 -14z m-66 -49 c0 -3 -4 -8 -10 -11 -5 -3 -10 -1 -10 4
0 6 5 11 10 11 6 0 10 -2 10 -4z m480 -16 c0 -5 -2 -10 -4 -10 -3 0 -8 5 -11
10 -3 6 -1 10 4 10 6 0 11 -4 11 -10z m-540 -35 c-7 -8 -17 -15 -22 -15 -11 0
14 29 26 30 5 0 3 -7 -4 -15z m-80 -61 c-8 -8 -23 -20 -34 -26 -19 -10 -18 -8
3 16 26 27 53 37 31 10z m-223 -56 c-3 -8 -6 -5 -6 6 -1 11 2 17 5 13 3 -3 4
-12 1 -19z m73 -68 c-14 -10 -27 -16 -30 -13 -6 6 30 33 44 33 6 0 0 -9 -14
-20z m670 -9 c0 -6 -4 -13 -10 -16 -5 -3 -10 1 -10 9 0 9 5 16 10 16 6 0 10
-4 10 -9z m-1479 -50 c-6 -11 -21 -26 -32 -32 -25 -13 -20 1 14 38 24 27 33
23 18 -6z m685 -36 c-8 -8 -17 -15 -20 -15 -3 0 -3 7 0 15 4 8 13 15 21 15 12
0 12 -2 -1 -15z m-784 -77 c-7 -7 -12 -8 -12 -2 0 6 3 14 7 17 3 4 9 5 12 2 2
-3 -1 -11 -7 -17z m-82 -92 c0 -2 -7 -7 -16 -10 -8 -3 -12 -2 -9 4 6 10 25 14
25 6z m-70 -33 c-1 -18 -18 -35 -24 -24 -4 6 -4 16 -1 21 7 12 25 13 25 3z
m1578 -49 c-7 -15 -14 -21 -16 -15 -2 7 2 18 8 26 18 22 21 18 8 -11z m-1238
-75 c0 -5 -4 -9 -10 -9 -5 0 -10 7 -10 16 0 8 5 12 10 9 6 -3 10 -10 10 -16z
m1186 -46 c-10 -10 -19 5 -10 18 6 11 8 11 12 0 2 -7 1 -15 -2 -18z m-76 -173
c0 -5 -5 -10 -11 -10 -5 0 -7 5 -4 10 3 6 8 10 11 10 2 0 4 -4 4 -10z m-20
-34 c0 -3 -4 -8 -10 -11 -5 -3 -10 -1 -10 4 0 6 5 11 10 11 6 0 10 -2 10 -4z
m-970 -197 c0 -5 -4 -9 -10 -9 -5 0 -10 7 -10 16 0 8 5 12 10 9 6 -3 10 -10
10 -16z m770 -269 c0 -5 -4 -10 -10 -10 -5 0 -10 5 -10 10 0 6 5 10 10 10 6 0
10 -4 10 -10z m-35 -80 c-5 -16 -10 -19 -18 -11 -7 7 -6 15 3 26 17 20 24 13
15 -15z m-125 -290 c0 -5 -4 -10 -10 -10 -5 0 -10 5 -10 10 0 6 5 10 10 10 6
0 10 -4 10 -10z m-20 -40 c0 -5 -4 -10 -10 -10 -5 0 -10 5 -10 10 0 6 5 10 10
10 6 0 10 -4 10 -10z m1670 -10 c0 -5 -5 -10 -11 -10 -5 0 -7 5 -4 10 3 6 8
10 11 10 2 0 4 -4 4 -10z m-1690 -29 c0 -6 -4 -13 -10 -16 -5 -3 -10 1 -10 9
0 9 5 16 10 16 6 0 10 -4 10 -9z m1234 -236 c-10 -8 -23 -14 -29 -14 -5 0 -1
6 9 14 11 8 24 15 30 15 5 0 1 -7 -10 -15z m-549 -325 c-3 -5 -11 -10 -16 -10
-6 0 -7 5 -4 10 3 6 11 10 16 10 6 0 7 -4 4 -10z m-344 -190 c-13 -11 -28 -20
-35 -20 -6 0 0 9 14 20 33 26 52 25 21 0z m-71 -50 c0 -5 -7 -10 -16 -10 -8 0
-12 5 -9 10 3 6 10 10 16 10 5 0 9 -4 9 -10z m-229 -123 c-13 -13 -26 -3 -16
12 3 6 11 8 17 5 6 -4 6 -10 -1 -17z m-51 -31 c0 -2 -7 -6 -15 -10 -8 -3 -15
-1 -15 4 0 6 7 10 15 10 8 0 15 -2 15 -4z m-641 -377 c-22 -14 -33 -10 -19 6
7 8 17 12 22 9 6 -4 5 -10 -3 -15z m-392 -181 c-3 -7 -5 -2 -5 12 0 14 2 19 5
13 2 -7 2 -19 0 -25z m68 2 c-3 -5 -11 -10 -16 -10 -6 0 -7 5 -4 10 3 6 11 10
16 10 6 0 7 -4 4 -10z"/>
<path d="M4491 4425 c-7 -38 -24 -113 -38 -165 -14 -52 -29 -111 -33 -130 -4
-19 -27 -109 -50 -200 -23 -91 -45 -181 -50 -200 -4 -19 -16 -68 -25 -108
l-17 -72 28 -38 c16 -20 49 -60 74 -87 74 -84 110 -128 110 -137 0 -18 23 -7
48 24 15 18 61 71 102 118 41 47 81 93 88 102 12 15 -3 83 -98 470 -62 249
-116 462 -120 473 -5 15 -10 1 -19 -50z"/>
<path d="M3545 4005 c12 -29 294 -864 305 -900 4 -16 11 -42 14 -57 10 -42 23
-34 30 19 3 26 12 69 20 97 20 73 72 278 79 313 2 12 -93 131 -179 223 -63 67
-143 161 -206 243 -58 74 -74 90 -63 62z"/>
<path d="M5434 3973 c-16 -21 -73 -90 -127 -153 -149 -174 -191 -224 -199
-235 -4 -5 -24 -30 -44 -54 -32 -40 -35 -48 -29 -85 4 -23 11 -45 16 -50 5 -6
9 -25 9 -43 0 -17 4 -42 9 -55 5 -13 14 -43 21 -68 7 -25 16 -56 21 -70 5 -14
10 -46 11 -72 1 -27 4 -48 7 -48 3 0 55 149 115 331 61 182 113 332 118 335 4
3 8 18 8 33 0 15 4 31 9 36 5 6 21 46 36 90 16 44 34 93 42 108 22 43 9 43
-23 0z m-91 -218 c-3 -9 -8 -14 -10 -11 -3 3 -2 9 2 15 9 16 15 13 8 -4z m-70
-40 c-10 -13 -24 -26 -31 -29 -19 -8 4 31 26 43 25 15 25 14 5 -14z m-77 -93
c-35 -36 -43 -22 -9 18 16 20 29 28 31 20 3 -7 -7 -24 -22 -38z m-46 -39 c-1
-13 -40 -56 -46 -50 -3 3 5 17 17 31 24 27 29 31 29 19z m-73 -95 c-3 -8 -6
-5 -6 6 -1 11 2 17 5 13 3 -3 4 -12 1 -19z"/>
<path d="M3143 3028 c18 -35 48 -99 67 -143 19 -44 51 -117 72 -162 21 -46 38
-85 38 -89 0 -3 14 -36 31 -73 17 -36 39 -84 49 -106 9 -22 32 -70 49 -107 17
-37 31 -69 31 -71 0 -3 18 -45 40 -94 47 -101 52 -113 76 -170 19 -46 34 -48
34 -5 0 15 7 50 16 77 8 28 19 70 24 95 4 25 27 117 50 205 22 88 42 166 43
174 1 8 -19 31 -44 50 -87 68 -514 411 -556 446 -23 19 -44 35 -47 35 -3 0 9
-28 27 -62z"/>
<path d="M5858 3063 c-12 -16 -81 -74 -153 -130 -71 -56 -139 -110 -150 -120
-11 -10 -36 -29 -55 -43 -19 -13 -47 -36 -63 -52 -15 -15 -31 -28 -35 -28 -4
0 -25 -16 -47 -35 -22 -19 -43 -35 -47 -35 -14 0 -57 -51 -54 -63 2 -6 10 -34
17 -62 6 -27 15 -54 19 -60 4 -5 10 -26 13 -45 9 -60 38 -184 48 -202 5 -9 9
-30 9 -47 0 -16 4 -32 9 -35 5 -3 12 -32 16 -63 10 -80 15 -83 36 -24 10 28
34 85 53 127 20 41 36 77 36 81 0 3 16 40 36 82 20 42 42 92 49 111 13 36 47
110 116 258 21 45 39 85 39 88 0 9 85 197 120 267 32 61 26 74 -12 30z m-48
-93 c-6 -11 -15 -18 -21 -14 -6 4 -6 11 2 20 17 21 31 17 19 -6z m-99 -81
c-24 -22 -46 -38 -49 -34 -8 7 59 72 77 74 8 0 -5 -17 -28 -40z m69 7 c0 -3
-4 -8 -10 -11 -5 -3 -10 -1 -10 4 0 6 5 11 10 11 6 0 10 -2 10 -4z m-225 -126
c-10 -11 -21 -18 -23 -15 -3 3 3 12 14 20 27 20 30 18 9 -5z m-75 -60 c0 -5
-5 -10 -11 -10 -5 0 -7 5 -4 10 3 6 8 10 11 10 2 0 4 -4 4 -10z m-132 -110
c-12 -16 -25 -30 -30 -30 -4 0 -8 -12 -8 -26 0 -14 -4 -23 -10 -19 -24 15 0
64 45 92 11 6 21 12 23 12 1 1 -7 -12 -20 -29z m-24 -125 c3 -8 1 -15 -4 -15
-6 0 -10 7 -10 15 0 8 2 15 4 15 2 0 6 -7 10 -15z m16 -91 c0 -8 -5 -12 -10
-9 -6 4 -8 11 -5 16 9 14 15 11 15 -7z m100 -241 c-1 -15 -30 -46 -37 -40 -3
4 2 16 12 27 19 21 25 24 25 13z"/>
</g>
</svg>
